<?xml version="1.0" encoding="UTF-8"?>
<svg width="163px" height="62px" viewBox="0 0 163 62" version="1.1" xmlns="http://www.w3.org/2000/svg" xmlns:xlink="http://www.w3.org/1999/xlink">
    <g>
      <path fill="#008CD2" d="M17.7223541,0 C8.79736118,0 0,3.90429433 0,14.5693607 C0,30.3631363 22.2202183,26.5957057 22.2202183,35.6875754 C22.2202183,39.9951025 17.070356,41.831725 13.2244898,41.831725 C9.23253916,41.831725 4.29027053,40.6661761 0.80730897,38.8884198 L0.80730897,47.4975875 C5.81416232,48.6587214 8.28529663,49.3371532 13.8011391,49.3371532 C24.0301281,49.3371532 32.7921215,45.3739928 32.7921215,34.9149578 C32.7921215,18.9151508 10.6103465,22.4368154 10.6103465,14.1646562 C10.6103465,8.9682509 15.1251258,7.50542823 18.6065496,7.50542823 C22.1633223,7.50542823 26.5627717,8.45022919 29.755102,9.74969843 L29.8319886,1.69240048 C26.1306692,0.529794934 22.0756716,0 17.7223541,0 Z M77.7707641,13.6863691 C70.3712008,13.6863691 63.5467489,16.9504946 63.5467489,24.3190591 C63.5467489,36.6647527 79.9620313,32.0746683 79.9620313,38.7780458 C79.9620313,42.0966224 76.1300047,42.9722557 73.7342193,42.9722557 C70.4942193,42.9722557 67.4279829,42.1216405 64.4693878,40.7279855 L63.8927385,48.0126659 C67.3434077,48.8735826 70.9862933,49.4843185 74.5799715,49.4843185 C82.259402,49.4843185 89.8035121,46.3011339 89.8035121,38.3365501 C89.8035121,25.9908565 73.3882297,29.4301086 73.3882297,23.9879373 C73.3882297,21.0667069 76.4267869,20.1984318 78.9625059,20.1984318 C82.4147129,20.1984318 85.0319317,20.7414717 87.9197912,21.6700844 L88.0350595,14.9740651 C85.0780021,14.3765742 82.2070576,13.6863691 77.7707026,13.6863691 L77.7707641,13.6863691 Z M110.370669,13.6863691 C99.0299003,13.6863691 92.8020883,21.5288058 92.8020883,31.4197829 C92.8020883,41.8405549 98.8115425,49.4843185 110.716659,49.4843185 C114.590204,49.4843185 117.388875,49.1399517 120.135263,48.3437877 L119.712387,40.9855247 C118.093156,41.64924 115.163778,42.5675513 112.48505,42.5675513 C105.865116,42.5675513 102.682012,37.7258142 102.682012,31.4197829 C102.682012,24.9813028 106.40486,20.6031363 112.25439,20.6031363 C115.140712,20.6031363 116.984452,21.1241013 118.674419,21.854041 L119.520171,14.8268999 C116.912178,14.0969602 114.175017,13.6863691 110.370669,13.6863691 Z M140.164215,13.6863691 C129.456991,13.6863691 121.211675,20.5398552 121.211675,31.8244873 C121.211675,41.64924 128.1899,49.4843185 140.164215,49.4843185 C152.210802,49.4843185 159.19364,41.64924 159.19364,31.8244873 C159.19364,20.5398552 150.942174,13.6863691 140.164215,13.6863691 Z M159.07831,13.6863691 C157.460617,13.6863691 156.195064,14.8872376 156.195064,16.3721351 C156.195064,17.8732207 157.460617,19.0946924 159.07831,19.0946924 C160.694466,19.0946924 162,17.8732207 162,16.3721351 C162,14.8872376 160.717532,13.6863691 159.116754,13.6863691 L159.078372,13.6863691 L159.07831,13.6863691 Z M55.0123398,14.017491 L36.9824395,61 L45.6321785,61 L64.5847176,14.017491 L55.0123398,14.017491 Z M159.07831,14.3486128 C160.27159,14.3486128 161.115804,15.2463209 161.115804,16.3721351 C161.115804,17.499421 160.254675,18.4471653 159.07831,18.4324487 C157.900408,18.4324487 157.040816,17.5200241 157.040816,16.4089264 C157.040816,15.266924 157.934238,14.3486128 159.07831,14.3486128 Z M159.07831,15.0844391 C158.538567,15.0844391 158.106464,15.1639083 157.925012,15.1947542 L157.925012,17.6597723 L158.732321,17.6597723 L158.732321,16.7399894 L159.001424,16.7399894 C159.262838,16.7399894 159.375093,16.8945129 159.4243,17.1446938 C159.473507,17.3639701 159.53514,17.5669993 159.616516,17.6597723 L160.500712,17.6597723 C160.451505,17.5669993 160.428377,17.4301945 160.346939,17.0711112 C160.265378,16.7105563 160.102439,16.5235976 159.808733,16.4456589 L159.808733,16.4089264 C160.167024,16.3147407 160.385382,16.0689747 160.385382,15.8202654 C160.385382,15.5700844 160.279217,15.4140893 160.116279,15.305187 C159.919449,15.1801554 159.667262,15.0844391 159.07831,15.0844391 Z M158.770764,15.6363088 C158.835349,15.6363088 158.941452,15.6363088 159.039867,15.6363088 C159.318196,15.6363088 159.501187,15.7260207 159.501187,15.9306393 C159.501187,16.1028227 159.295131,16.2249698 159.001424,16.2249698 L158.770764,16.2249698 L158.770764,15.6363088 Z M140.164215,20.6031363 C146.36281,20.6031363 149.313716,25.514041 149.313716,30.7575392 C149.313716,36.4675513 147.419231,42.5675513 140.164215,42.5675513 C132.979934,42.5675513 131.091599,36.4013269 131.091599,30.7575392 C131.091599,25.6464897 134.034817,20.6031363 140.164215,20.6031363 Z"></path>
      <path fill="#56B146" d="M25.1006053,11.2708329 C29.1040725,15.1205437 33.0921595,19.8132461 35.9820999,25.3153374 C38.5690503,30.2417984 39.8763677,35.0411532 40.8130221,39.8741107 C40.8499346,40.0435856 40.9714382,40.0318977 41.0375731,39.899006 C44.4796629,34.186532 46.5852129,26.409678 43.5060959,20.5481829 C40.277791,14.4003337 32.5169399,11.5689335 25.231337,11.0006081 C24.9760256,10.990089 24.9314231,11.1174873 25.1006053,11.2708914"></path>
    </g>
</svg>
